<svg xmlns="http://www.w3.org/2000/svg" viewBox="0 0 36 45" x="0px" y="0px"><title>Монтажная область 18</title><g><polygon points="7.053 31.214 7.122 31.137 7.053 31.214 7.053 31.214"/><polygon points="13.98 31.716 13.98 31.716 13.978 31.716 13.98 31.716"/><polygon points="13.659 31.627 13.658 31.627 13.66 31.628 13.659 31.627"/><polygon points="7.122 31.137 7.212 31.038 7.212 31.037 7.122 31.137"/><polygon points="14.508 29.261 14.508 29.261 14.509 29.262 14.508 29.261"/><path d="M15.44831,14.14819l.02771-.01159c.01367-.0055.02863-.01319.0423-.01862Z"/><path d="M29.18092,9.89532A1.40814,1.40814,0,0,0,28.1056,8.73364l-.09912-.02777q-6.413-1.49688-13.8092-3.7215l-.139-.03326c-.5846-.10559-1.04529-.17255-1.40979-.2099-.00495-.22669-.00916-.424-.0141-.65643V4.08392l-.00116-.05249a1.25712,1.25712,0,1,0-2.51367.05383l.0011.053V4.13733q.26412,12.59784.33453,13.42889.03936,8.7204.15051,11.68128a6.4917,6.4917,0,0,0-1.114.32763l-.02759.0116a8.12969,8.12969,0,0,0-2.251,1.45019l-.00128.00135a1.25681,1.25681,0,0,0-.07721,1.77545,1.29981,1.29981,0,0,0,1.93573-.09918l-.15942.17639a5.62246,5.62246,0,0,1,1.545-.99231,7.09447,7.09447,0,0,1,1.83014-.36108,5.168,5.168,0,0,1,1.37207.08953l-.00885-.0036a1.27335,1.27335,0,0,0,.339.09394l-.00793-.00141a7.63727,7.63727,0,0,1,1.75952.8653,1.25712,1.25712,0,1,0,1.27124-2.16919,9.82645,9.82645,0,0,0-2.46759-1.137l-.03571-.01385a5.11467,5.11467,0,0,0-1.39355-.22022c-.06775-1.88427-.115-5.51593-.14173-10.87139a27.09745,27.09745,0,0,1,3.47174-1.714l.07019-.03028q.75486-.35339,5.20087-1.77166l-.01642.005.0459-.014.03888-.01373q1.36707-.50217,2.77606-1.12732l.00922-.00427a14.759,14.759,0,0,0,4.28888-2.555A1.25739,1.25739,0,0,0,29.18092,9.89532ZM14.40083,29.23718l-.00153.00006h-.00018ZM22.62238,9.95807l.023.00616-.22248.22919A1.19089,1.19089,0,0,0,22.62238,9.95807Zm-9.9201-2.683q.33618.04761.84668.13941c.57355.17212,1.1286.33093,1.69379.49682l-2.45917,3.03925C12.75868,9.85571,12.732,8.65051,12.70228,7.27508Zm3.78516,6.4148c-.015.01941-.01764.04358-.03131.06335-.44916.16223-.77924.29132-.98011.38337A27.83268,27.83268,0,0,0,12.89076,15.36c-.00458-.17108-.0094-.36059-.01453-.5531.02014-.02179.04779-.032.06659-.05554l4.67657-5.78015a1.22066,1.22066,0,0,0,.16852-.32355q1.08656.30744,2.14874.59687Zm7.04718-2.48242q-1.32468.58785-2.602,1.05713l-.20856.06665,1.47424-1.90015L22.2,10.42883a1.34917,1.34917,0,0,1,.22229-.2345l.22357-.23016c.76752.19934,1.5296.395,2.27863.58057C24.51277,10.7514,24.05818,10.97021,23.53462,11.20746Z"/></g></svg>