<?xml version="1.0" encoding="utf-8"?>
<!-- Generator: Adobe Illustrator 22.0.0, SVG Export Plug-In . SVG Version: 6.00 Build 0)  -->
<svg version="1.1" id="Layer_1" xmlns="http://www.w3.org/2000/svg" xmlns:xlink="http://www.w3.org/1999/xlink" x="0px" y="0px"
	 viewBox="0 0 36 45" style="enable-background:new 0 0 36 45;" xml:space="preserve">
<style type="text/css">
	.st0{fill:#FFFFFF;}
</style>
<title>Монтажная область 18</title>
<g>
	<polygon class="st0" points="7.1,31.2 7.1,31.1 7.1,31.2 	"/>
	<polygon class="st0" points="14,31.7 14,31.7 14,31.7 	"/>
	<polygon class="st0" points="13.7,31.6 13.7,31.6 13.7,31.6 	"/>
	<polygon class="st0" points="7.1,31.1 7.2,31 7.2,31 	"/>
	<polygon class="st0" points="14.5,29.3 14.5,29.3 14.5,29.3 	"/>
	<path class="st0" d="M15.4,14.1L15.4,14.1C15.5,14.1,15.5,14.1,15.4,14.1L15.4,14.1z"/>
	<path class="st0" d="M29.2,9.9c-0.1-0.6-0.5-1-1.1-1.2l-0.1,0c-4.3-1-8.9-2.2-13.8-3.7l-0.1,0c-0.6-0.1-1-0.2-1.4-0.2
		c0-0.2,0-0.4,0-0.7v0l0-0.1c0-0.7-0.6-1.2-1.3-1.2c-0.7,0-1.2,0.6-1.2,1.3l0,0.1v0c0.2,8.4,0.3,12.9,0.3,13.4
		c0,5.8,0.1,9.7,0.2,11.7c-0.4,0.1-0.8,0.2-1.1,0.3l0,0c-0.8,0.4-1.6,0.8-2.3,1.5l0,0c-0.5,0.5-0.5,1.3-0.1,1.8
		c0.5,0.5,1.3,0.5,1.8,0c0,0,0.1-0.1,0.1-0.1l-0.2,0.2c0.5-0.4,1-0.7,1.5-1c0.6-0.2,1.2-0.3,1.8-0.4c0.5,0,0.9,0,1.4,0.1l0,0
		c0.1,0,0.2,0.1,0.3,0.1l0,0c0.6,0.2,1.2,0.5,1.8,0.9c0.6,0.4,1.4,0.2,1.7-0.4c0.4-0.6,0.2-1.4-0.4-1.7c-0.8-0.5-1.6-0.9-2.5-1.1
		l0,0c-0.5-0.1-0.9-0.2-1.4-0.2C13,27.2,13,23.5,13,18.2c1.1-0.7,2.3-1.2,3.5-1.7l0.1,0c0.5-0.2,2.2-0.8,5.2-1.8l0,0l0,0l0,0
		c0.9-0.3,1.8-0.7,2.8-1.1l0,0c1.6-0.6,3-1.5,4.3-2.6C29.1,10.7,29.2,10.3,29.2,9.9z M14.4,29.2L14.4,29.2L14.4,29.2L14.4,29.2z
		 M22.6,10L22.6,10l-0.2,0.2C22.5,10.1,22.6,10,22.6,10z M12.7,7.3c0.2,0,0.5,0.1,0.8,0.1c0.6,0.2,1.1,0.3,1.7,0.5l-2.5,3
		C12.8,9.9,12.7,8.7,12.7,7.3L12.7,7.3z M16.5,13.7C16.5,13.7,16.5,13.7,16.5,13.7c-0.5,0.2-0.8,0.4-1,0.4c-0.9,0.4-1.7,0.8-2.6,1.2
		c0-0.2,0-0.4,0-0.6c0,0,0,0,0.1-0.1L17.6,9c0.1-0.1,0.1-0.2,0.2-0.3c0.7,0.2,1.4,0.4,2.1,0.6L16.5,13.7z M23.5,11.2
		c-0.9,0.4-1.8,0.7-2.6,1.1l-0.2,0.1l1.5-1.9l0,0c0.1-0.1,0.1-0.2,0.2-0.2l0.2-0.2c0.8,0.2,1.5,0.4,2.3,0.6
		C24.5,10.8,24.1,11,23.5,11.2L23.5,11.2z"/>
</g>
</svg>
