<?xml version="1.0" encoding="utf-8"?>
<!-- Generator: Adobe Illustrator 22.0.0, SVG Export Plug-In . SVG Version: 6.00 Build 0)  -->
<svg version="1.1" id="Layer_1" xmlns="http://www.w3.org/2000/svg" xmlns:xlink="http://www.w3.org/1999/xlink" x="0px" y="0px"
	 viewBox="0 0 77.8 78" style="enable-background:new 0 0 77.8 78;" xml:space="preserve">
<style type="text/css">
	.st0{fill:#FFFFFF;}
</style>
<g>
	<path class="st0" d="M38.9,4.2C25.8,4.2,15.1,14.9,15.1,28c0,9.2,5.2,17.2,12.9,21.2v23c0,0.6,0.3,1.1,0.9,1.4
		c0.5,0.3,1.2,0.2,1.6-0.2l8.5-7.2l8.5,7.2c0.3,0.2,0.6,0.4,1,0.4c0.2,0,0.4,0,0.6-0.1c0.5-0.2,0.9-0.8,0.9-1.4v-23
		c7.7-4,12.9-12,12.9-21.2C62.7,14.8,52,4.2,38.9,4.2z M46.8,68.9l-7-5.9c-0.6-0.5-1.4-0.5-1.9,0l-7,5.9V50.6c5.3,2.1,11,2,15.9,0
		V68.9z M38.9,48.8c-11.5,0-20.8-9.3-20.8-20.8S27.4,7.2,38.9,7.2S59.7,16.5,59.7,28S50.4,48.8,38.9,48.8z"/>
	<path class="st0" d="M44.8,37.5L39,34.4c-0.1,0-0.2,0-0.3,0l-5.8,3.1c-0.2,0.1-0.4-0.1-0.4-0.3l1.1-6.4c0-0.1,0-0.2-0.1-0.2
		L28.8,26c-0.2-0.2-0.1-0.4,0.1-0.5l6.4-0.9c0.1,0,0.2-0.1,0.2-0.1l2.9-5.8c0.1-0.2,0.4-0.2,0.5,0l2.9,5.8c0,0.1,0.1,0.1,0.2,0.1
		l6.4,0.9c0.2,0,0.3,0.3,0.1,0.5l-4.7,4.6c-0.1,0.1-0.1,0.2-0.1,0.2l1.1,6.4C45.2,37.4,45,37.6,44.8,37.5z"/>
</g>
</svg>
