<?xml version="1.0" encoding="utf-8"?>
<!-- Generator: Adobe Illustrator 22.0.0, SVG Export Plug-In . SVG Version: 6.00 Build 0)  -->
<svg version="1.1" id="Layer_1" xmlns="http://www.w3.org/2000/svg" xmlns:xlink="http://www.w3.org/1999/xlink" x="0px" y="0px"
	 viewBox="0 0 60 75" style="enable-background:new 0 0 60 75;" xml:space="preserve">
<style type="text/css">
	.st0{fill:#FFFFFF;}
</style>
<title>Weaponary - Solid - 021 - Mine</title>
<g>
	<path class="st0" d="M58.3,28.5l-3.4-0.9c-0.4-0.1-0.8-0.1-1.2-0.1c-0.4-3.4-1.6-6.6-3.4-9.4l2.9-4.9c0.7-1.1,0.4-1.8,0.1-2.1
		s-1-0.6-2.1,0l-4.5,2.6c-3.9-3.7-8.8-6-14.1-6.5L31,1.7c-0.4-1.3-1-1.5-1.5-1.5l0,0c-0.5,0-1.1,0.3-1.5,1.5l-1.5,5.6
		c-5,0.7-9.7,3-13.3,6.6l-4.8-2.8c-1.1-0.6-1.8-0.4-2.1,0s-0.6,1,0.1,2.1l3.2,5.3c-1.7,2.7-2.7,5.8-3.1,9c-0.4-0.1-0.8,0-1.2,0.1
		l-3.4,0.9c-1.3,0.3-1.6,0.9-1.6,1.4s0.3,1.1,1.5,1.5L5,32.3c0.4,0.1,0.8,0.2,1.2,0.2h0.1c0.3,3.3,1.3,6.5,2.9,9.4l-2.9,4.9
		c-0.7,1.1-0.4,1.8-0.1,2.1c0.2,0.2,0.6,0.4,0.9,0.4c0.4,0,0.9-0.2,1.2-0.4l4.2-2.4c3.8,4,8.8,6.6,14.2,7.3l1.2,4.6
		c0.3,1.3,1,1.5,1.5,1.5s1.1-0.3,1.5-1.5l1.2-4.5c5.7-0.5,11.1-3,15.1-7.2l3.8,2.2c0.4,0.2,0.8,0.4,1.2,0.4c0.3,0,0.7-0.1,0.9-0.4
		c0.3-0.3,0.6-1-0.1-2.1l-2.6-4.4c1.8-3,2.9-6.4,3.2-9.9h0.1c0.4,0,0.8,0,1.2-0.1l3.3-0.9c1.3-0.3,1.5-1,1.5-1.5
		S59.6,28.9,58.3,28.5z M41.9,18.7l0.9-0.5l7.8-4.4l-2.3,3.9l0,0l-2.7,4.6c-0.1,0.3-0.4,0.4-0.6,0.3c-0.1,0-0.2-0.1-0.2-0.2
		l-2.9-2.9c-0.2-0.1-0.3-0.4-0.1-0.6C41.7,18.7,41.8,18.7,41.9,18.7L41.9,18.7z M26.9,13.3l2.6-9.5l1.2,4.5l0,0l1.1,4.1l0.2,0.9l0,0
		c0.1,0.2,0,0.5-0.2,0.6c-0.1,0-0.2,0.1-0.3,0h-4.1c-0.3,0-0.5-0.1-0.6-0.4C26.9,13.5,26.9,13.4,26.9,13.3L26.9,13.3z M17.5,41.3
		l-5.3,3l0,0l-3.3,1.9l5-8.5c0.1-0.2,0.2-0.3,0.4-0.3l0,0c0.2,0,0.3,0.1,0.4,0.2l2.9,2.9l0,0c0.2,0.1,0.3,0.4,0.1,0.6
		C17.7,41.3,17.6,41.3,17.5,41.3L17.5,41.3z M17.6,19.5l-2.9,2.9c-0.2,0.2-0.5,0.3-0.7,0.1c-0.1-0.1-0.1-0.1-0.2-0.2v-0.1l-5-8.4
		l4,2.3l0,0l4.7,2.7c0.2,0.1,0.4,0.3,0.3,0.6C17.8,19.3,17.8,19.4,17.6,19.5L17.6,19.5z M32.1,46.7l-2.6,9.5l-1-3.6l0,0l-1.6-5.9
		c-0.1-0.2,0-0.5,0.2-0.6c0.1,0,0.2-0.1,0.3,0h4.1c0.3,0,0.5,0.1,0.6,0.4C32.1,46.5,32.1,46.6,32.1,46.7L32.1,46.7z M29.5,33
		c-1.7,0-3-1.4-2.9-3.1c0-1.7,1.4-3,3.1-2.9c1.6,0,2.9,1.4,2.9,3C32.6,31.7,31.2,33,29.5,33C29.5,33,29.5,33,29.5,33z M47.6,44.6
		L47.6,44.6l-5.7-3.2c-0.2-0.1-0.4-0.3-0.3-0.6c0-0.1,0.1-0.2,0.2-0.2l1.6-1.5l1.3-1.3c0.1-0.1,0.3-0.2,0.4-0.2l0,0
		c0.2,0,0.3,0.2,0.4,0.3l0.4,0.7l4.6,7.8L47.6,44.6z"/>
</g>
</svg>
