<?xml version="1.0" encoding="utf-8"?>
<!-- Generator: Adobe Illustrator 22.0.0, SVG Export Plug-In . SVG Version: 6.00 Build 0)  -->
<svg version="1.1" id="Layer_1" xmlns="http://www.w3.org/2000/svg" xmlns:xlink="http://www.w3.org/1999/xlink" x="0px" y="0px"
	 viewBox="0 0 24 30" style="enable-background:new 0 0 24 30;" xml:space="preserve">
<style type="text/css">
	.st0{fill:#FFFFFF;}
</style>
<title>UI</title>
<g>
	<path class="st0" d="M12,1C5.9,1,1,5.9,1,12s4.9,11,11,11s11-4.9,11-11C23,5.9,18.1,1,12,1z M11,16c0,0.6-0.4,1-1,1s-1-0.4-1-1V8
		c0-0.6,0.4-1,1-1s1,0.4,1,1V16z M15,16c0,0.6-0.4,1-1,1s-1-0.4-1-1V8c0-0.6,0.4-1,1-1s1,0.4,1,1V16z"/>
</g>
</svg>
